<svg xmlns="http://www.w3.org/2000/svg" xmlns:xlink="http://www.w3.org/1999/xlink" width="500" zoomAndPan="magnify" viewBox="0 0 375 374.999991" height="500" preserveAspectRatio="xMidYMid meet" version="1.0"><defs><g/><clipPath id="cdb75c8c1b"><path d="M 114 116.160156 L 261 116.160156 L 261 167.160156 L 114 167.160156 Z M 114 116.160156 " clip-rule="nonzero"/></clipPath></defs><g fill="#ff3131" fill-opacity="1"><g transform="translate(146.297442, 254.338373)"><g><path d="M 4.75 0 L 4.75 -8.765625 L 0.1875 -8.765625 L 0.1875 -10.578125 L 11.578125 -10.578125 L 11.578125 -8.765625 L 7 -8.765625 L 7 0 Z M 4.75 0 "/></g></g></g><g fill="#ff3131" fill-opacity="1"><g transform="translate(161.258302, 254.338373)"><g><path d="M 1.59375 0 L 1.59375 -10.578125 L 3.828125 -10.578125 L 3.828125 -6.265625 L 10.84375 -6.265625 L 10.84375 -10.578125 L 13.078125 -10.578125 L 13.078125 0 L 10.84375 0 L 10.84375 -4.453125 L 3.828125 -4.453125 L 3.828125 0 Z M 1.59375 0 "/></g></g></g><g fill="#ff3131" fill-opacity="1"><g transform="translate(179.141892, 254.338373)"><g><path d="M 0.1875 0 L 6.046875 -10.578125 L 8.03125 -10.578125 L 13.875 0 L 11.5625 0 L 9.96875 -2.953125 L 11 -2.28125 L 3.03125 -2.28125 L 4.046875 -2.953125 L 2.453125 0 Z M 6.984375 -8.515625 L 4.3125 -3.5 L 3.765625 -3.984375 L 10.265625 -3.984375 L 9.703125 -3.5 L 7.03125 -8.515625 Z M 6.984375 -8.515625 "/></g></g></g><g fill="#ff3131" fill-opacity="1"><g transform="translate(196.410957, 254.338373)"><g><path d="M 1.59375 0 L 1.59375 -10.578125 L 3.40625 -10.578125 L 10.9375 -2.78125 L 10.65625 -2.78125 L 10.65625 -10.578125 L 12.8125 -10.578125 L 12.8125 0 L 10.953125 0 L 3.484375 -7.765625 L 3.75 -7.765625 L 3.75 0 Z M 1.59375 0 "/></g></g></g><g fill="#ff3131" fill-opacity="1"><g transform="translate(214.024752, 254.338373)"><g><path d="M 1.59375 0 L 1.59375 -10.578125 L 3.828125 -10.578125 L 3.828125 -6.265625 L 10.84375 -6.265625 L 10.84375 -10.578125 L 13.078125 -10.578125 L 13.078125 0 L 10.84375 0 L 10.84375 -4.453125 L 3.828125 -4.453125 L 3.828125 0 Z M 1.59375 0 "/></g></g></g><g fill="#ff5757" fill-opacity="1"><g transform="translate(71.941567, 226.206314)"><g><path d="M 37.390625 -46.109375 L 37.390625 0 L 26.890625 0 L 26.890625 -17.765625 L 14.703125 -17.765625 L 14.703125 0 L 4.1875 0 L 4.1875 -46.109375 L 14.703125 -46.109375 L 14.703125 -28.28125 L 26.890625 -28.28125 L 26.890625 -46.109375 Z M 37.390625 -46.109375 "/></g></g></g><g fill="#ff5757" fill-opacity="1"><g transform="translate(115.197974, 226.206314)"><g><path d="M 13.8125 -23.078125 C 13.8125 -20.691406 14.378906 -18.503906 15.515625 -16.515625 C 16.648438 -14.523438 18.1875 -12.921875 20.125 -11.703125 C 22.0625 -10.492188 24.222656 -9.890625 26.609375 -9.890625 C 28.992188 -9.890625 31.144531 -10.492188 33.0625 -11.703125 C 34.976562 -12.921875 36.503906 -14.523438 37.640625 -16.515625 C 38.773438 -18.503906 39.34375 -20.691406 39.34375 -23.078125 C 39.34375 -25.460938 38.773438 -27.648438 37.640625 -29.640625 C 36.503906 -31.640625 34.976562 -33.234375 33.0625 -34.421875 C 31.144531 -35.617188 28.992188 -36.21875 26.609375 -36.21875 C 24.222656 -36.21875 22.0625 -35.617188 20.125 -34.421875 C 18.1875 -33.234375 16.648438 -31.640625 15.515625 -29.640625 C 14.378906 -27.648438 13.8125 -25.460938 13.8125 -23.078125 Z M 3.359375 -23.078125 C 3.359375 -26.316406 3.953125 -29.367188 5.140625 -32.234375 C 6.335938 -35.109375 7.992188 -37.65625 10.109375 -39.875 C 12.234375 -42.09375 14.703125 -43.828125 17.515625 -45.078125 C 20.328125 -46.328125 23.359375 -46.953125 26.609375 -46.953125 C 29.847656 -46.953125 32.875 -46.328125 35.6875 -45.078125 C 38.5 -43.828125 40.957031 -42.09375 43.0625 -39.875 C 45.164062 -37.65625 46.8125 -35.109375 48 -32.234375 C 49.195312 -29.367188 49.796875 -26.316406 49.796875 -23.078125 C 49.796875 -19.835938 49.195312 -16.773438 48 -13.890625 C 46.8125 -11.003906 45.164062 -8.460938 43.0625 -6.265625 C 40.957031 -4.066406 38.5 -2.332031 35.6875 -1.0625 C 32.875 0.207031 29.847656 0.84375 26.609375 0.84375 C 23.359375 0.84375 20.328125 0.207031 17.515625 -1.0625 C 14.703125 -2.332031 12.234375 -4.066406 10.109375 -6.265625 C 7.992188 -8.460938 6.335938 -11.003906 5.140625 -13.890625 C 3.953125 -16.773438 3.359375 -19.835938 3.359375 -23.078125 Z M 3.359375 -23.078125 "/></g></g></g><g fill="#ff5757" fill-opacity="1"><g transform="translate(170.022918, 226.206314)"><g><path d="M 39.96875 -46.109375 L 39.96875 -16.375 C 39.96875 -10.675781 38.425781 -6.378906 35.34375 -3.484375 C 32.269531 -0.597656 27.8125 0.84375 21.96875 0.84375 C 16.082031 0.84375 11.609375 -0.597656 8.546875 -3.484375 C 5.492188 -6.378906 3.96875 -10.675781 3.96875 -16.375 L 3.96875 -46.109375 L 14.46875 -46.109375 L 14.46875 -19.453125 C 14.46875 -16.878906 14.726562 -14.863281 15.25 -13.40625 C 15.78125 -11.957031 16.601562 -10.941406 17.71875 -10.359375 C 18.832031 -9.785156 20.25 -9.5 21.96875 -9.5 C 23.675781 -9.5 25.078125 -9.785156 26.171875 -10.359375 C 27.273438 -10.941406 28.097656 -11.957031 28.640625 -13.40625 C 29.179688 -14.863281 29.453125 -16.878906 29.453125 -19.453125 L 29.453125 -46.109375 Z M 39.96875 -46.109375 "/></g></g></g><g fill="#ff5757" fill-opacity="1"><g transform="translate(215.570686, 226.206314)"><g><path d="M 8.21875 -14.078125 C 9.40625 -13.222656 10.789062 -12.429688 12.375 -11.703125 C 13.957031 -10.984375 15.550781 -10.414062 17.15625 -10 C 18.757812 -9.59375 20.238281 -9.40625 21.59375 -9.4375 C 22.957031 -9.476562 24.054688 -9.804688 24.890625 -10.421875 C 25.734375 -11.035156 26.15625 -12.03125 26.15625 -13.40625 C 26.15625 -14.644531 25.6875 -15.738281 24.75 -16.6875 C 23.820312 -17.632812 22.628906 -18.523438 21.171875 -19.359375 C 19.722656 -20.203125 18.175781 -21.050781 16.53125 -21.90625 C 14.894531 -22.757812 13.347656 -23.695312 11.890625 -24.71875 C 10.441406 -25.75 9.257812 -26.925781 8.34375 -28.25 C 7.4375 -29.570312 6.984375 -31.109375 6.984375 -32.859375 C 6.984375 -34.835938 7.398438 -36.765625 8.234375 -38.640625 C 9.078125 -40.523438 10.316406 -42.164062 11.953125 -43.5625 C 13.597656 -44.957031 15.601562 -45.953125 17.96875 -46.546875 C 20.332031 -47.148438 23.050781 -47.160156 26.125 -46.578125 C 29.195312 -46.003906 32.597656 -44.675781 36.328125 -42.59375 L 32.078125 -34.203125 C 30.328125 -35.691406 28.582031 -36.671875 26.84375 -37.140625 C 25.113281 -37.609375 23.519531 -37.703125 22.0625 -37.421875 C 20.613281 -37.140625 19.453125 -36.613281 18.578125 -35.84375 C 17.703125 -35.082031 17.265625 -34.21875 17.265625 -33.25 C 17.265625 -32.394531 17.75 -31.625 18.71875 -30.9375 C 19.6875 -30.25 20.941406 -29.554688 22.484375 -28.859375 C 24.035156 -28.171875 25.6875 -27.40625 27.4375 -26.5625 C 29.1875 -25.726562 30.832031 -24.742188 32.375 -23.609375 C 33.925781 -22.472656 35.195312 -21.128906 36.1875 -19.578125 C 37.175781 -18.035156 37.671875 -16.1875 37.671875 -14.03125 C 37.671875 -11.832031 37.070312 -9.707031 35.875 -7.65625 C 34.6875 -5.601562 33.03125 -3.832031 30.90625 -2.34375 C 28.78125 -0.851562 26.265625 0.128906 23.359375 0.609375 C 20.453125 1.097656 17.273438 0.910156 13.828125 0.046875 C 10.378906 -0.804688 6.757812 -2.570312 2.96875 -5.25 Z M 8.21875 -14.078125 "/></g></g></g><g fill="#ff5757" fill-opacity="1"><g transform="translate(257.821138, 226.206314)"><g><path d="M 30.34375 -46.109375 L 30.34375 -36.890625 L 14.46875 -36.890625 L 14.46875 -27.71875 L 29.671875 -27.71875 L 29.671875 -18.5 L 14.46875 -18.5 L 14.46875 -9.21875 L 30.34375 -9.21875 L 30.34375 0 L 3.96875 0 L 3.96875 -46.109375 Z M 30.34375 -46.109375 "/></g></g></g><g fill="#ff5757" fill-opacity="1"><g transform="translate(293.765771, 226.206314)"><g/></g></g><g clip-path="url(#cdb75c8c1b)"><path fill="#ff3131" d="M 187.527344 116.203125 L 187.5 116.25 L 187.472656 116.203125 L 145.089844 141.199219 L 145.089844 131.238281 L 131.488281 131.238281 L 131.488281 149.1875 L 131.535156 149.1875 L 114.058594 159.496094 L 118.664062 167.308594 L 187.5 126.714844 L 256.335938 167.308594 L 260.941406 159.496094 Z M 187.527344 116.203125 " fill-opacity="1" fill-rule="nonzero"/></g></svg>